<svg id="visual" viewBox="0 0 900 600" width="900" height="600" xmlns="http://www.w3.org/2000/svg" xmlns:xlink="http://www.w3.org/1999/xlink" version="1.1"><path d="M0 102L15 105.3C30 108.7 60 115.3 90 122.3C120 129.3 150 136.7 180 132C210 127.3 240 110.7 270 108C300 105.3 330 116.7 360 122.5C390 128.3 420 128.7 450 135C480 141.3 510 153.7 540 157.5C570 161.3 600 156.7 630 148.2C660 139.7 690 127.3 720 127.5C750 127.7 780 140.3 810 148.8C840 157.3 870 161.7 885 163.8L900 166L900 0L885 0C870 0 840 0 810 0C780 0 750 0 720 0C690 0 660 0 630 0C600 0 570 0 540 0C510 0 480 0 450 0C420 0 390 0 360 0C330 0 300 0 270 0C240 0 210 0 180 0C150 0 120 0 90 0C60 0 30 0 15 0L0 0Z" fill="#ffffff"></path><path d="M0 136L15 137.2C30 138.3 60 140.7 90 136.3C120 132 150 121 180 120.7C210 120.3 240 130.7 270 126.5C300 122.3 330 103.7 360 107.7C390 111.7 420 138.3 450 146.8C480 155.3 510 145.7 540 140.5C570 135.3 600 134.7 630 131.7C660 128.7 690 123.3 720 119.3C750 115.3 780 112.7 810 109.8C840 107 870 104 885 102.5L900 101L900 0L885 0C870 0 840 0 810 0C780 0 750 0 720 0C690 0 660 0 630 0C600 0 570 0 540 0C510 0 480 0 450 0C420 0 390 0 360 0C330 0 300 0 270 0C240 0 210 0 180 0C150 0 120 0 90 0C60 0 30 0 15 0L0 0Z" fill="#fdfdfd"></path><path d="M0 99L15 97.5C30 96 60 93 90 100C120 107 150 124 180 126C210 128 240 115 270 109.5C300 104 330 106 360 113.7C390 121.3 420 134.7 450 130.2C480 125.7 510 103.3 540 93.3C570 83.3 600 85.7 630 85.5C660 85.3 690 82.7 720 83.3C750 84 780 88 810 97.2C840 106.3 870 120.7 885 127.8L900 135L900 0L885 0C870 0 840 0 810 0C780 0 750 0 720 0C690 0 660 0 630 0C600 0 570 0 540 0C510 0 480 0 450 0C420 0 390 0 360 0C330 0 300 0 270 0C240 0 210 0 180 0C150 0 120 0 90 0C60 0 30 0 15 0L0 0Z" fill="#fbfbfb"></path><path d="M0 101L15 104.3C30 107.7 60 114.3 90 112.5C120 110.7 150 100.3 180 92.2C210 84 240 78 270 82.7C300 87.3 330 102.7 360 106C390 109.3 420 100.7 450 103.3C480 106 510 120 540 119.3C570 118.7 600 103.3 630 98.2C660 93 690 98 720 96C750 94 780 85 810 86.7C840 88.3 870 100.7 885 106.8L900 113L900 0L885 0C870 0 840 0 810 0C780 0 750 0 720 0C690 0 660 0 630 0C600 0 570 0 540 0C510 0 480 0 450 0C420 0 390 0 360 0C330 0 300 0 270 0C240 0 210 0 180 0C150 0 120 0 90 0C60 0 30 0 15 0L0 0Z" fill="#f8f8f8"></path><path d="M0 64L15 65.5C30 67 60 70 90 72C120 74 150 75 180 79.8C210 84.7 240 93.3 270 99.5C300 105.7 330 109.3 360 103C390 96.7 420 80.3 450 76.7C480 73 510 82 540 85.7C570 89.3 600 87.7 630 84.3C660 81 690 76 720 78.3C750 80.7 780 90.3 810 93.5C840 96.7 870 93.3 885 91.7L900 90L900 0L885 0C870 0 840 0 810 0C780 0 750 0 720 0C690 0 660 0 630 0C600 0 570 0 540 0C510 0 480 0 450 0C420 0 390 0 360 0C330 0 300 0 270 0C240 0 210 0 180 0C150 0 120 0 90 0C60 0 30 0 15 0L0 0Z" fill="#f6f6f6"></path><path d="M0 71L15 74C30 77 60 83 90 86.7C120 90.3 150 91.7 180 85.8C210 80 240 67 270 62.5C300 58 330 62 360 68.3C390 74.7 420 83.3 450 88.2C480 93 510 94 540 90.8C570 87.7 600 80.3 630 75.3C660 70.3 690 67.7 720 65.3C750 63 780 61 810 62.2C840 63.3 870 67.7 885 69.8L900 72L900 0L885 0C870 0 840 0 810 0C780 0 750 0 720 0C690 0 660 0 630 0C600 0 570 0 540 0C510 0 480 0 450 0C420 0 390 0 360 0C330 0 300 0 270 0C240 0 210 0 180 0C150 0 120 0 90 0C60 0 30 0 15 0L0 0Z" fill="#f4f4f4"></path><path d="M0 60L15 59.8C30 59.7 60 59.3 90 57C120 54.7 150 50.3 180 53.2C210 56 240 66 270 66C300 66 330 56 360 51C390 46 420 46 450 52C480 58 510 70 540 69.8C570 69.7 600 57.3 630 53.8C660 50.3 690 55.7 720 57.3C750 59 780 57 810 60.5C840 64 870 73 885 77.5L900 82L900 0L885 0C870 0 840 0 810 0C780 0 750 0 720 0C690 0 660 0 630 0C600 0 570 0 540 0C510 0 480 0 450 0C420 0 390 0 360 0C330 0 300 0 270 0C240 0 210 0 180 0C150 0 120 0 90 0C60 0 30 0 15 0L0 0Z" fill="#f2f2f2"></path><path d="M0 47L15 49.5C30 52 60 57 90 57.5C120 58 150 54 180 54.7C210 55.3 240 60.7 270 62.5C300 64.3 330 62.7 360 59.5C390 56.3 420 51.7 450 51C480 50.3 510 53.7 540 52.2C570 50.7 600 44.3 630 43.3C660 42.3 690 46.7 720 46.3C750 46 780 41 810 42.3C840 43.7 870 51.3 885 55.2L900 59L900 0L885 0C870 0 840 0 810 0C780 0 750 0 720 0C690 0 660 0 630 0C600 0 570 0 540 0C510 0 480 0 450 0C420 0 390 0 360 0C330 0 300 0 270 0C240 0 210 0 180 0C150 0 120 0 90 0C60 0 30 0 15 0L0 0Z" fill="#f0f0f0"></path><path d="M0 23L15 23.5C30 24 60 25 90 25.7C120 26.3 150 26.7 180 28C210 29.3 240 31.7 270 33.7C300 35.7 330 37.3 360 35C390 32.7 420 26.3 450 24.3C480 22.3 510 24.7 540 25.2C570 25.7 600 24.3 630 27C660 29.7 690 36.3 720 39C750 41.7 780 40.3 810 37C840 33.7 870 28.3 885 25.7L900 23L900 0L885 0C870 0 840 0 810 0C780 0 750 0 720 0C690 0 660 0 630 0C600 0 570 0 540 0C510 0 480 0 450 0C420 0 390 0 360 0C330 0 300 0 270 0C240 0 210 0 180 0C150 0 120 0 90 0C60 0 30 0 15 0L0 0Z" fill="#eeeeee"></path><path d="M0 25L15 24.7C30 24.3 60 23.7 90 23.8C120 24 150 25 180 24.7C210 24.3 240 22.7 270 21.3C300 20 330 19 360 17.8C390 16.7 420 15.3 450 17.3C480 19.3 510 24.7 540 25.5C570 26.3 600 22.7 630 20C660 17.3 690 15.7 720 16C750 16.3 780 18.7 810 18.2C840 17.7 870 14.3 885 12.7L900 11L900 0L885 0C870 0 840 0 810 0C780 0 750 0 720 0C690 0 660 0 630 0C600 0 570 0 540 0C510 0 480 0 450 0C420 0 390 0 360 0C330 0 300 0 270 0C240 0 210 0 180 0C150 0 120 0 90 0C60 0 30 0 15 0L0 0Z" fill="#ececec"></path></svg>